# xmcd
#
# Track frame offsets:
#	150
#	14120
#	30445
#	47437
#	63467
#	81040
#	99062
#	108842
#	125642
#	142092
#	159917
#	171742
#	181190
#	195782
#	214772
#	231842
#
# Disc length: 3286 seconds
#
# Revision: 0
# Processed by: cddbd v1.5.2PL0 Copyright (c) Steve Scherf et al.
# Submitted via: audiograbber 1.83.01
#
DISCID=ce0cd410
DTITLE=Varios - Die Fahrtenschreibe
DYEAR=1900
DGENRE=
TTITLE0=Teddy Nelson - American Dreamer
TTITLE1=Buffalo C. Wayne - Rock´n Roll Rodeo
TTITLE2=Freeway - Jolene
TTITLE3=Kevin Johnson - State of Change
TTITLE4=Dave Dudley - Giddy up go
TTITLE5=Ernest Robins - Dixieland Delight
TTITLE6=Cash Backmann - On the road again
TTITLE7=Teddy Nelson - Semi Truck
TTITLE8=Robert Hines - Roll in eighteen wheeler
TTITLE9=John McNeil - Wolfcreek pass
TTITLE10=Linda Manning - No thanks to you
TTITLE11=Charlie Rich - Lonely weekends
TTITLE12=Jeanne C. Riley - Harper valley PTA
TTITLE13=Teddy Nelson - Lousianna calling
TTITLE14=Trini Lopez - My Paraguaya
TTITLE15=Tony Christie - Sweet September
EXTD=
EXTT0=
EXTT1=
EXTT2=
EXTT3=
EXTT4=
EXTT5=
EXTT6=
EXTT7=
EXTT8=
EXTT9=
EXTT10=
EXTT11=
EXTT12=
EXTT13=
EXTT14=
EXTT15=
PLAYORDER=
